# xmcd
# 
# Track frame offsets:
#     150
#     18695
#     39822
#     58700
#     86145
#     106255
#     121582
#     143870
#     165792
#     192047
# 
# Disc length: 2788
# 
# Revision: 2
# Processed by: cddbd v1.5.2PL0 Copyright (c) Steve Scherf et al.
# Submitted via: fre:ac v1.0.27
# 
DISCID=730ae20a
DTITLE=徐雯倩 - 美麗的預謀
DYEAR=1991
DGENRE=POP
TTITLE0=美麗的預謀
TTITLE1=Cotton Love
TTITLE2=忘了 ．男孩
TTITLE3=愛情已遠走
TTITLE4=能不能放開我的手
TTITLE5=Hold On Me
TTITLE6=我笑著哭著
TTITLE7=何苦
TTITLE8=十年前的那場電影
TTITLE9=輕輕入眠 (美麗的預謀2)
EXTD=
EXTT0=
EXTT1=
EXTT2=
EXTT3=
EXTT4=
EXTT5=
EXTT6=
EXTT7=
EXTT8=
EXTT9=
PLAYORDER=
